# xmcd
#
# Track frame offsets: 
#        150
#        20927
#        38061
#        64597
#        84037
#        102811
#        120660
#        134981
#        155420
#        168787
#        187568
#        208333
#        228668
#        255938
#
# Disc length: 3709 seconds
#
# Revision: 0
# Processed by: cddbd v1.5.2PL0 Copyright (c) Steve Scherf et al.
# Submitted via: ExactAudioCopy v0.99pb4
#
DISCID=b20e7b0e
DTITLE=Brad Vickers and His Vestapolitans - Stuck With The Blues
DYEAR=2010
DGENRE=Blues
TTITLE0=Stuck With The Blues
TTITLE1=I'm Betting On You
TTITLE2=Cold Fish
TTITLE3=Can't Stand To See You Go
TTITLE4=What About Me?
TTITLE5=Deep Elem
TTITLE6=Vestapol Rag
TTITLE7=Winding Boy
TTITLE8=Jaguar And The Thunderbird
TTITLE9=I Want To Tell You Right Now
TTITLE10=Coming And Going
TTITLE11=Hobo Jungle
TTITLE12=They Gave Us The Blues
TTITLE13=I'm A Love You
EXTD=
EXTT0=
EXTT1=
EXTT2=
EXTT3=
EXTT4=
EXTT5=
EXTT6=
EXTT7=
EXTT8=
EXTT9=
EXTT10=
EXTT11=
EXTT12=
EXTT13=
PLAYORDER=
